<svg width="9" height="15" viewBox="0 0 9 15" fill="none" xmlns="http://www.w3.org/2000/svg">
<path d="M6.92735 14.2228L0.703163 8.01705C0.629286 7.94317 0.577079 7.86313 0.546543 7.77694C0.515514 7.69075 0.5 7.59841 0.5 7.4999C0.5 7.4014 0.515514 7.30905 0.546543 7.22286C0.577079 7.13667 0.629286 7.05664 0.703163 6.98276L6.92735 0.758572C7.09973 0.58619 7.31521 0.5 7.57378 0.5C7.83235 0.5 8.05398 0.592347 8.23868 0.777041C8.42337 0.961735 8.51572 1.17721 8.51572 1.42347C8.51572 1.66973 8.42337 1.88521 8.23868 2.0699L2.80868 7.4999L8.23868 12.9299C8.41106 13.1023 8.49725 13.3146 8.49725 13.5667C8.49725 13.8194 8.4049 14.0381 8.22021 14.2228C8.03552 14.4075 7.82004 14.4998 7.57378 14.4998C7.32752 14.4998 7.11205 14.4075 6.92735 14.2228Z" fill="white"/>
</svg>
