<?xml version="1.0" encoding="utf-8"?>
<!DOCTYPE svg PUBLIC "-//W3C//DTD SVG 20010904//EN" "http://www.w3.org/TR/2001/REC-SVG-20010904/DTD/svg10.dtd">
<svg version="1.0" xmlns="http://www.w3.org/2000/svg" width="2002pt" height="320pt" viewBox="0 0 2002 320" style="" preserveAspectRatio="xMidYMid meet">
<g fill="#75BC1EFF" stroke="#75BC1EFF">
<path d="M 90.500 89.152 C 62.257 90.568 31.134 98.530 6.743 110.580 L 0.986 113.424 1.243 179.852 L 1.500 246.281 7.313 249.326 L 13.127 252.370 50.812 214.685 L 88.497 177.000 61.218 177.000 L 33.940 177.000 34.220 164.250 L 34.500 151.500 74.488 151.238 L 114.476 150.977 121.738 143.763 C 125.732 139.796 129.000 136.201 129.000 135.775 C 129.000 135.349 117.075 135.000 102.500 135.000 L 76.000 135.000 76.000 122.500 L 76.000 110.000 125.000 110.000 L 174.000 110.000 174.000 159.030 L 174.000 208.060 161.250 207.780 L 148.500 207.500 148.000 180.725 L 147.500 153.950 139.762 161.735 L 132.023 169.521 131.762 209.510 L 131.500 249.500 119.000 249.500 L 106.500 249.500 106.000 222.743 L 105.500 195.986 72.545 228.954 C 54.419 247.087 39.794 262.120 40.045 262.361 C 40.295 262.602 46.350 264.241 53.500 266.004 C 76.440 271.658 104.819 273.100 132.050 269.994 C 150.204 267.924 174.977 260.618 194.250 251.652 L 204.000 247.116 204.000 180.072 L 204.000 113.029 198.250 110.137 C 167.411 94.628 129.302 87.206 90.500 89.152 "/></g>
<g fill="#000000FF" stroke="#000000FF">
<path d="M 1020.500 87.491 C 1005.356 90.853 990.340 100.930 979.509 115.000 C 970.114 127.205 965.834 139.947 964.027 161.093 C 962.827 175.131 962.359 177.222 958.476 185.875 C 955.412 192.701 955.637 195.728 959.495 199.586 C 961.590 201.681 962.840 202.000 968.955 202.000 L 976.000 202.000 976.009 207.750 C 976.017 212.298 976.645 214.593 979.017 218.728 C 982.897 225.493 986.294 227.232 996.750 227.801 L 1005.000 228.251 1005.000 243.136 L 1005.000 258.022 1046.738 257.761 L 1088.475 257.500 1089.639 243.500 C 1091.017 226.924 1094.624 214.645 1103.006 198.000 C 1108.617 186.857 1110.277 182.032 1112.640 170.000 C 1116.198 151.892 1109.761 129.292 1096.264 112.500 C 1086.956 100.920 1068.619 89.469 1055.566 87.084 C 1047.564 85.622 1027.891 85.850 1020.500 87.491 M 1058.500 90.963 C 1060.150 91.689 1063.408 93.120 1065.739 94.142 C 1068.071 95.164 1070.359 96.000 1070.823 96.000 C 1071.288 96.000 1074.331 97.845 1077.584 100.100 C 1097.409 113.837 1108.214 132.842 1109.650 156.500 C 1110.411 169.038 1107.762 180.511 1100.961 194.126 C 1098.110 199.832 1094.210 208.775 1092.293 214.000 C 1088.840 223.412 1085.053 242.549 1085.018 250.762 L 1085.000 255.024 1046.750 254.762 L 1008.500 254.500 1008.224 239.868 L 1007.948 225.236 998.724 224.821 C 984.624 224.187 980.956 220.692 980.015 207.000 L 979.500 199.500 971.398 199.000 C 966.693 198.710 962.605 197.925 961.648 197.128 C 959.491 195.332 959.560 191.806 961.842 187.210 C 964.920 181.010 966.939 171.996 967.946 159.957 C 969.347 143.228 970.470 138.534 975.544 128.229 C 984.536 109.964 1001.413 96.040 1021.303 90.479 C 1027.908 88.632 1053.972 88.971 1058.500 90.963 "/></g>
<g fill="#75BC1EFF" stroke="#75BC1EFF">
<path d="M 301.000 112.064 C 292.210 112.586 284.939 113.730 276.500 115.919 C 262.107 119.653 261.291 119.953 248.240 126.296 L 237.980 131.283 238.240 177.822 L 238.500 224.360 243.500 227.333 C 275.089 246.111 323.732 251.349 366.582 240.588 C 374.237 238.666 383.875 235.756 388.000 234.122 L 395.500 231.151 395.777 216.452 C 396.036 202.756 395.934 201.790 394.277 202.306 C 393.300 202.610 387.550 204.725 381.500 207.007 C 358.834 215.552 328.682 219.602 306.159 217.126 C 295.787 215.985 278.543 212.089 272.274 209.470 L 268.924 208.070 269.212 198.785 L 269.500 189.500 332.750 189.243 L 396.000 188.985 396.000 160.584 L 396.000 132.184 389.750 128.770 C 375.105 120.770 351.364 113.370 337.517 112.488 C 321.391 111.461 312.826 111.362 301.000 112.064 M 347.696 143.323 C 365.067 147.489 364.000 146.726 364.000 154.985 L 364.000 162.020 316.750 161.760 L 269.500 161.500 269.241 155.500 C 269.099 152.200 269.346 148.945 269.791 148.266 C 270.623 146.994 282.193 143.793 294.500 141.430 C 299.145 140.539 307.388 140.179 319.000 140.362 C 333.921 140.598 338.150 141.034 347.696 143.323 "/></g>
<g fill="#FFFFFFFF" stroke="#FFFFFFFF">
<path d="M 76.000 122.500 L 76.000 135.000 102.500 135.000 C 117.075 135.000 129.000 135.349 129.000 135.775 C 129.000 136.201 125.732 139.796 121.738 143.763 L 114.476 150.977 74.488 151.238 L 34.500 151.500 34.220 164.250 L 33.940 177.000 61.215 177.000 L 88.490 177.000 51.245 214.255 C 30.760 234.745 14.000 251.790 14.000 252.132 C 14.000 252.942 21.497 256.146 31.363 259.550 L 39.225 262.264 72.596 228.904 L 105.966 195.545 106.233 222.522 L 106.500 249.500 119.000 249.500 L 131.500 249.500 131.762 209.510 L 132.023 169.521 139.762 161.735 L 147.500 153.950 148.000 180.725 L 148.500 207.500 161.250 207.780 L 174.000 208.060 174.000 159.030 L 174.000 110.000 125.000 110.000 L 76.000 110.000 76.000 122.500 "/></g>
<g fill="#55565AFF" stroke="#55565AFF">
<path d="M 621.000 179.500 L 621.000 246.000 637.000 246.000 L 653.000 246.000 653.000 200.535 L 653.000 155.070 655.250 153.827 C 661.800 150.206 674.420 145.838 683.849 143.927 C 692.884 142.096 696.624 141.852 708.500 142.319 C 722.606 142.875 737.030 145.338 744.250 148.424 L 748.000 150.027 748.000 198.013 L 748.000 246.000 764.008 246.000 L 780.017 246.000 779.758 189.891 L 779.500 133.782 772.342 129.917 C 745.009 115.157 708.384 109.850 679.500 116.462 C 672.900 117.974 664.625 120.513 661.112 122.105 C 657.598 123.697 654.336 125.000 653.862 125.000 C 653.388 125.000 653.000 122.300 653.000 119.000 L 653.000 113.000 637.000 113.000 L 621.000 113.000 621.000 179.500 "/></g>
<g fill="#55565AFF" stroke="#55565AFF">
<path d="M 483.122 49.964 C 473.694 51.452 455.071 59.547 448.468 65.027 C 447.254 66.034 447.000 70.290 447.000 89.622 L 447.000 113.000 437.500 113.000 L 428.000 113.000 428.000 129.000 L 428.000 145.000 437.500 145.000 L 447.000 145.000 447.000 195.500 L 447.000 246.000 463.500 246.000 L 480.000 246.000 480.000 195.500 L 480.000 145.000 501.500 145.000 L 523.000 145.000 523.000 129.000 L 523.000 113.000 501.475 113.000 L 479.949 113.000 480.225 97.350 L 480.500 81.699 484.500 80.242 C 486.823 79.397 493.742 78.588 501.000 78.314 C 512.036 77.898 514.612 78.134 523.000 80.327 C 528.225 81.694 533.288 83.128 534.250 83.513 C 535.869 84.161 536.000 83.121 536.000 69.650 L 536.000 55.087 527.750 52.441 C 520.598 50.147 517.437 49.749 504.000 49.455 C 495.475 49.268 486.080 49.497 483.122 49.964 "/></g>
<g fill="#55565AFF" stroke="#55565AFF">
<path d="M 556.000 179.500 L 556.000 246.000 572.000 246.000 L 588.000 246.000 588.000 179.500 L 588.000 113.000 572.000 113.000 L 556.000 113.000 556.000 179.500 "/></g>
<g fill="#000000FF" stroke="#000000FF">
<path d="M 1405.000 208.000 L 1405.000 254.000 1411.000 254.000 L 1417.000 254.000 1417.000 234.000 L 1417.000 214.000 1426.750 214.008 L 1436.500 214.016 1439.581 219.758 C 1445.539 230.861 1457.217 251.514 1458.260 252.792 C 1458.968 253.660 1461.346 253.988 1465.496 253.792 L 1471.677 253.500 1464.884 241.500 C 1461.148 234.900 1456.888 227.250 1455.417 224.500 C 1453.947 221.750 1451.901 218.306 1450.872 216.846 C 1449.842 215.386 1449.000 213.734 1449.000 213.176 C 1449.000 212.618 1451.311 211.393 1454.136 210.455 C 1465.188 206.784 1470.863 197.454 1469.719 184.836 C 1468.697 173.566 1462.488 165.897 1452.035 162.993 C 1450.091 162.453 1438.713 162.009 1426.750 162.006 L 1405.000 162.000 1405.000 208.000 M 1449.500 173.881 C 1455.559 176.663 1457.315 179.207 1457.799 185.903 C 1458.350 193.516 1456.315 197.878 1450.714 201.086 C 1446.791 203.333 1445.498 203.500 1432.000 203.500 L 1417.500 203.500 1417.225 187.750 L 1416.949 172.000 1431.225 172.022 C 1442.926 172.040 1446.221 172.375 1449.500 173.881 "/></g>
<g fill="#000000FF" stroke="#000000FF">
<path d="M 1697.000 207.931 L 1697.000 254.000 1703.000 254.000 L 1709.000 254.000 1709.000 234.124 L 1709.000 214.248 1723.750 213.743 C 1740.448 213.172 1745.455 211.870 1751.788 206.449 C 1756.666 202.274 1759.000 196.133 1759.000 187.471 C 1759.000 176.450 1755.307 169.780 1746.688 165.235 C 1741.552 162.527 1741.278 162.497 1719.250 162.181 L 1697.000 161.863 1697.000 207.931 M 1741.321 175.000 C 1746.269 178.371 1748.353 182.976 1747.753 189.215 C 1747.188 195.097 1744.786 198.629 1739.443 201.431 C 1736.166 203.151 1733.264 203.559 1722.250 203.848 L 1709.000 204.196 1709.000 188.004 L 1709.000 171.812 1723.326 172.156 C 1736.667 172.476 1737.904 172.672 1741.321 175.000 "/></g>
<g fill="#000000FF" stroke="#000000FF">
<path d="M 1790.755 166.750 C 1789.860 169.363 1787.468 176.000 1785.440 181.500 C 1783.413 187.000 1780.944 193.750 1779.955 196.500 C 1778.966 199.250 1776.059 207.125 1773.495 214.000 C 1770.931 220.875 1767.787 229.425 1766.508 233.000 C 1765.229 236.575 1763.017 242.648 1761.591 246.496 C 1760.166 250.343 1759.000 253.626 1759.000 253.791 C 1759.000 253.956 1762.019 253.958 1765.709 253.796 L 1772.417 253.500 1774.709 246.500 C 1775.970 242.650 1777.713 237.588 1778.584 235.250 L 1780.165 231.000 1800.554 231.000 L 1820.942 231.000 1823.130 238.250 C 1824.333 242.238 1826.130 247.413 1827.123 249.750 L 1828.929 254.000 1835.571 254.000 C 1841.502 254.000 1842.138 253.813 1841.502 252.250 C 1841.110 251.288 1839.739 247.575 1838.455 244.000 C 1837.170 240.425 1834.262 232.550 1831.991 226.500 C 1829.721 220.450 1826.816 212.575 1825.537 209.000 C 1824.258 205.425 1821.641 198.225 1819.723 193.000 C 1817.805 187.775 1814.784 179.450 1813.009 174.500 C 1808.215 161.122 1809.117 162.000 1800.156 162.000 L 1792.382 162.000 1790.755 166.750 M 1809.443 198.037 C 1813.599 209.817 1817.000 220.028 1817.000 220.728 C 1817.000 221.708 1813.093 222.000 1800.000 222.000 C 1790.650 222.000 1783.000 221.854 1783.000 221.676 C 1783.000 221.047 1796.067 184.431 1798.176 179.153 C 1799.669 175.413 1800.548 174.228 1801.099 175.212 C 1801.532 175.986 1805.287 186.257 1809.443 198.037 "/></g>
<g fill="#000000FF" stroke="#000000FF">
<path d="M 1485.000 208.000 L 1485.000 254.000 1491.487 254.000 L 1497.975 254.000 1498.237 218.256 L 1498.500 182.513 1507.170 195.006 C 1511.939 201.878 1517.259 209.525 1518.993 212.000 C 1520.726 214.475 1526.355 222.575 1531.501 230.000 C 1536.647 237.425 1542.544 245.863 1544.604 248.750 L 1548.350 254.000 1554.175 254.000 L 1560.000 254.000 1560.000 208.000 L 1560.000 162.000 1553.500 162.000 L 1547.000 162.000 1547.000 197.000 C 1547.000 216.250 1546.630 232.000 1546.178 232.000 C 1545.725 232.000 1544.241 230.313 1542.878 228.250 C 1541.516 226.188 1538.201 221.350 1535.512 217.500 C 1532.822 213.650 1526.538 204.650 1521.547 197.500 C 1516.555 190.350 1511.803 183.548 1510.986 182.385 C 1510.169 181.222 1506.676 176.160 1503.224 171.135 L 1496.948 162.000 1490.974 162.000 L 1485.000 162.000 1485.000 208.000 "/></g>
<g fill="#000000FF" stroke="#000000FF">
<path d="M 1168.000 208.000 L 1168.000 254.000 1174.000 254.000 L 1180.000 254.000 1180.000 218.500 C 1180.000 198.975 1180.338 183.013 1180.750 183.029 C 1181.163 183.045 1184.425 187.347 1188.000 192.590 C 1191.575 197.832 1196.075 204.319 1198.000 207.006 C 1199.925 209.693 1207.125 220.061 1214.000 230.044 C 1231.509 255.472 1230.121 254.000 1236.589 254.000 L 1242.000 254.000 1242.000 208.000 L 1242.000 162.000 1235.513 162.000 L 1229.026 162.000 1228.763 197.223 L 1228.500 232.446 1225.500 228.252 C 1222.178 223.608 1221.368 222.447 1202.992 196.000 C 1195.921 185.825 1188.813 175.700 1187.195 173.500 C 1185.577 171.300 1183.184 167.818 1181.877 165.762 C 1179.585 162.158 1179.295 162.024 1173.750 162.012 L 1168.000 162.000 1168.000 208.000 "/></g>
<g fill="#000000FF" stroke="#000000FF">
<path d="M 1638.665 161.981 C 1627.744 163.963 1617.328 173.912 1616.261 183.378 C 1615.277 192.107 1616.692 196.787 1621.886 201.981 C 1627.152 207.247 1635.711 210.702 1650.508 213.533 C 1665.290 216.361 1671.000 220.667 1671.000 228.987 C 1671.000 234.924 1667.956 239.757 1662.487 242.500 C 1657.003 245.251 1642.090 245.333 1637.113 242.639 C 1632.788 240.300 1629.110 236.384 1627.354 232.250 C 1626.035 229.146 1625.727 229.000 1620.487 229.000 C 1615.814 229.000 1615.000 229.275 1615.000 230.851 C 1615.000 233.879 1617.167 239.280 1619.761 242.718 C 1630.655 257.157 1661.759 259.114 1676.056 246.260 C 1686.723 236.669 1686.754 218.905 1676.117 211.200 C 1670.770 207.327 1668.994 206.683 1652.000 202.457 C 1644.025 200.474 1636.122 198.000 1634.437 196.960 C 1627.327 192.569 1626.497 182.729 1632.734 176.755 C 1636.729 172.928 1642.103 171.000 1648.772 171.000 C 1659.382 171.000 1667.882 177.159 1669.680 186.151 C 1670.230 188.902 1670.455 189.000 1676.239 189.000 L 1682.227 189.000 1681.517 184.263 C 1680.614 178.241 1678.838 174.838 1674.155 170.155 C 1668.394 164.394 1662.427 162.049 1652.236 161.539 C 1647.431 161.299 1641.324 161.498 1638.665 161.981 "/></g>
<g fill="#000000FF" stroke="#000000FF">
<path d="M 1940.000 208.000 L 1940.000 254.000 1970.500 254.000 L 2001.000 254.000 2001.000 249.000 L 2001.000 244.000 1976.500 244.000 L 1952.000 244.000 1952.000 228.500 L 1952.000 213.000 1973.000 213.000 L 1994.000 213.000 1994.000 208.000 L 1994.000 203.000 1973.000 203.000 L 1952.000 203.000 1952.000 187.500 L 1952.000 172.000 1976.500 172.000 L 2001.000 172.000 2001.000 167.000 L 2001.000 162.000 1970.500 162.000 L 1940.000 162.000 1940.000 208.000 "/></g>
<g fill="#000000FF" stroke="#000000FF">
<path d="M 1330.000 208.000 L 1330.000 254.000 1360.500 254.000 L 1391.000 254.000 1391.000 249.000 L 1391.000 244.000 1366.500 244.000 L 1342.000 244.000 1342.000 228.500 L 1342.000 213.000 1363.000 213.000 L 1384.000 213.000 1384.000 208.000 L 1384.000 203.000 1363.000 203.000 L 1342.000 203.000 1342.000 187.500 L 1342.000 172.000 1366.500 172.000 L 1391.000 172.000 1391.000 167.000 L 1391.000 162.000 1360.500 162.000 L 1330.000 162.000 1330.000 208.000 "/></g>
<g fill="#000000FF" stroke="#000000FF">
<path d="M 1879.812 162.026 C 1873.083 163.161 1863.611 168.549 1859.478 173.592 C 1857.528 175.971 1854.486 180.974 1852.717 184.709 C 1849.665 191.152 1849.482 192.201 1849.156 205.170 C 1848.783 219.982 1849.884 226.046 1854.561 234.957 C 1858.886 243.197 1866.324 249.620 1875.000 252.607 C 1883.537 255.546 1898.619 255.211 1906.563 251.906 C 1909.898 250.518 1914.233 248.101 1916.198 246.534 C 1920.358 243.214 1925.671 234.893 1926.602 230.239 L 1927.250 227.000 1921.138 227.000 L 1915.027 227.000 1913.460 230.750 C 1909.075 241.248 1896.711 246.743 1883.598 244.020 C 1872.317 241.678 1865.270 233.371 1862.421 219.054 C 1858.395 198.829 1864.655 180.286 1877.673 173.876 C 1884.230 170.648 1895.621 170.551 1901.513 173.673 C 1906.951 176.554 1910.915 180.652 1913.194 185.750 L 1915.094 190.000 1921.172 190.000 L 1927.250 190.000 1926.602 186.761 C 1926.246 184.980 1924.502 181.110 1922.727 178.162 C 1914.607 164.677 1898.966 158.796 1879.812 162.026 "/></g>
<g fill="#000000FF" stroke="#000000FF">
<path d="M 1251.000 167.000 L 1251.000 172.000 1265.500 172.000 L 1280.000 172.000 1280.000 213.000 L 1280.000 254.000 1286.000 254.000 L 1292.000 254.000 1292.000 213.000 L 1292.000 172.000 1306.500 172.000 L 1321.000 172.000 1321.000 167.000 L 1321.000 162.000 1286.000 162.000 L 1251.000 162.000 1251.000 167.000 "/></g>
<g fill="#000000FF" stroke="#000000FF">
<path d="M 1140.000 208.000 L 1140.000 254.000 1146.500 254.000 L 1153.000 254.000 1153.000 208.000 L 1153.000 162.000 1146.500 162.000 L 1140.000 162.000 1140.000 208.000 "/></g>
<g fill="#55565AFF" stroke="#55565AFF">
<path d="M 556.000 70.500 L 556.000 85.000 572.000 85.000 L 588.000 85.000 588.000 70.500 L 588.000 56.000 572.000 56.000 L 556.000 56.000 556.000 70.500 "/></g>
<g fill="#000000FF" stroke="#000000FF">
<path d="M 1139.000 118.500 L 1139.000 137.000 1148.550 137.000 C 1161.993 137.000 1166.285 134.542 1166.179 126.902 C 1166.118 122.437 1163.823 119.000 1160.904 119.000 C 1159.922 119.000 1158.840 118.550 1158.500 118.000 C 1158.160 117.450 1158.379 117.000 1158.986 117.000 C 1159.594 117.000 1161.195 115.895 1162.545 114.545 C 1166.159 110.931 1165.899 105.935 1161.923 102.589 C 1159.066 100.184 1158.140 100.000 1148.923 100.000 L 1139.000 100.000 1139.000 118.500 M 1160.000 122.000 C 1162.621 124.621 1162.541 128.418 1159.811 130.961 C 1158.053 132.599 1156.284 133.000 1150.811 133.000 L 1144.000 133.000 1144.000 126.500 L 1144.000 120.000 1151.000 120.000 C 1156.667 120.000 1158.381 120.381 1160.000 122.000 M 1158.000 105.000 C 1160.703 107.703 1160.518 111.572 1157.545 114.545 C 1155.530 116.561 1154.100 117.000 1149.545 117.000 L 1144.000 117.000 1144.000 110.000 L 1144.000 103.000 1150.000 103.000 C 1154.667 103.000 1156.444 103.444 1158.000 105.000 "/></g>
<g fill="#000000FF" stroke="#000000FF">
<path d="M 1309.308 99.964 C 1303.796 102.298 1302.845 108.445 1307.148 113.915 C 1309.028 116.305 1309.051 116.560 1307.468 117.494 C 1301.964 120.741 1299.899 125.477 1301.392 131.428 C 1302.834 137.172 1313.595 139.038 1321.077 134.841 L 1325.250 132.500 1326.747 134.750 C 1327.652 136.110 1329.259 137.000 1330.809 137.000 L 1333.374 137.000 1330.522 134.023 C 1327.836 131.219 1327.738 130.819 1328.835 127.157 C 1330.377 122.011 1330.305 120.000 1328.579 120.000 C 1327.798 120.000 1326.864 121.345 1326.503 122.989 C 1326.142 124.632 1325.392 126.258 1324.836 126.601 C 1323.778 127.255 1316.000 119.552 1316.000 117.849 C 1316.000 117.308 1317.575 115.380 1319.500 113.565 C 1323.484 109.808 1324.132 105.573 1321.250 102.133 C 1319.252 99.748 1312.650 98.549 1309.308 99.964 M 1316.846 124.564 C 1319.131 127.075 1321.000 129.524 1321.000 130.008 C 1321.000 131.746 1316.484 134.000 1313.000 134.000 C 1307.867 134.000 1305.000 131.650 1305.000 127.443 C 1305.000 123.630 1307.851 120.000 1310.846 120.000 C 1311.862 120.000 1314.562 122.054 1316.846 124.564 M 1318.504 104.365 C 1320.477 107.376 1319.266 110.941 1315.411 113.466 C 1312.660 115.269 1312.623 115.262 1310.320 112.585 C 1309.044 111.102 1308.000 108.936 1308.000 107.773 C 1308.000 102.338 1315.567 99.883 1318.504 104.365 "/></g>
<g fill="#000000FF" stroke="#000000FF">
<path d="M 1575.367 111.772 C 1572.152 114.377 1571.000 117.334 1571.000 122.984 C 1571.000 129.471 1572.972 133.284 1577.418 135.394 C 1581.706 137.429 1585.424 136.722 1589.378 133.121 L 1592.256 130.500 1591.739 135.353 C 1591.455 138.022 1590.481 140.947 1589.576 141.853 C 1587.323 144.106 1579.810 144.043 1577.276 141.750 C 1575.087 139.768 1571.628 139.384 1572.230 141.189 C 1573.626 145.379 1582.073 147.865 1588.779 146.059 C 1595.203 144.330 1596.000 141.955 1596.000 124.550 C 1596.000 110.667 1595.908 110.000 1594.000 110.000 C 1592.506 110.000 1592.000 110.667 1592.000 112.636 L 1592.000 115.273 1589.364 112.636 C 1587.267 110.540 1585.783 110.005 1582.114 110.022 C 1579.260 110.036 1576.686 110.704 1575.367 111.772 M 1587.462 114.165 C 1593.419 116.879 1593.103 129.472 1587.015 131.994 C 1580.851 134.547 1575.000 130.630 1575.000 123.950 C 1575.000 115.169 1580.385 110.940 1587.462 114.165 "/></g>
<g fill="#000000FF" stroke="#000000FF">
<path d="M 1051.043 131.085 C 1047.523 136.805 1044.030 140.190 1039.250 142.514 C 1035.151 144.506 1035.117 146.615 1039.148 148.797 C 1044.253 151.559 1048.680 155.779 1051.471 160.542 C 1052.909 162.994 1054.731 165.000 1055.522 165.000 C 1056.312 165.000 1057.866 163.223 1058.974 161.051 C 1061.454 156.189 1064.371 153.213 1070.372 149.422 C 1072.915 147.815 1074.997 146.021 1074.998 145.435 C 1074.999 144.850 1073.445 143.629 1071.544 142.722 C 1066.397 140.268 1060.572 134.596 1058.516 130.035 C 1057.515 127.816 1056.128 126.000 1055.434 126.000 C 1054.740 126.000 1052.764 128.288 1051.043 131.085 M 1058.376 135.991 C 1059.828 138.187 1062.862 141.204 1065.116 142.695 L 1069.215 145.408 1066.857 147.259 C 1062.612 150.593 1058.857 154.288 1057.300 156.665 C 1055.260 159.778 1054.566 159.625 1052.147 155.525 C 1051.020 153.614 1048.292 150.801 1046.086 149.275 C 1043.881 147.749 1042.059 146.273 1042.038 145.995 C 1042.017 145.718 1043.998 143.918 1046.440 141.995 C 1048.881 140.073 1051.684 137.038 1052.667 135.250 C 1053.650 133.463 1054.743 132.000 1055.095 132.000 C 1055.446 132.000 1056.923 133.796 1058.376 135.991 "/></g>
<g fill="#000000FF" stroke="#000000FF">
<path d="M 1272.000 107.073 L 1272.000 114.145 1269.365 112.073 C 1267.598 110.682 1265.268 110.000 1262.288 110.000 C 1256.421 110.000 1252.464 113.726 1251.499 120.159 C 1249.491 133.550 1259.921 141.874 1269.527 134.547 L 1273.000 131.898 1273.000 134.449 C 1273.000 136.333 1273.523 137.000 1275.000 137.000 C 1276.928 137.000 1277.000 136.333 1277.000 118.500 L 1277.000 100.000 1274.500 100.000 C 1272.069 100.000 1272.000 100.195 1272.000 107.073 M 1269.545 115.455 C 1271.566 117.475 1272.000 118.897 1272.000 123.500 C 1272.000 128.103 1271.566 129.525 1269.545 131.545 C 1266.388 134.703 1262.937 134.659 1259.077 131.411 C 1256.400 129.159 1256.000 128.175 1256.000 123.845 C 1256.000 118.079 1257.243 115.245 1260.315 114.007 C 1264.125 112.472 1267.017 112.926 1269.545 115.455 "/></g>
<g fill="#000000FF" stroke="#000000FF">
<path d="M 1193.721 112.382 C 1188.080 117.611 1187.768 127.388 1193.051 133.405 C 1197.636 138.628 1203.413 138.758 1208.750 133.759 L 1211.000 131.651 1211.000 134.326 C 1211.000 136.512 1211.457 137.000 1213.500 137.000 L 1216.000 137.000 1216.000 123.500 L 1216.000 110.000 1213.500 110.000 C 1211.447 110.000 1210.994 110.492 1210.968 112.750 C 1210.941 115.116 1210.766 115.278 1209.718 113.913 C 1206.235 109.377 1197.832 108.573 1193.721 112.382 M 1207.694 115.413 C 1210.155 117.530 1210.500 118.524 1210.500 123.500 C 1210.500 128.476 1210.155 129.470 1207.694 131.587 C 1206.151 132.914 1203.814 134.000 1202.500 134.000 C 1201.186 134.000 1198.849 132.914 1197.306 131.587 C 1194.845 129.470 1194.500 128.476 1194.500 123.500 C 1194.500 118.524 1194.845 117.530 1197.306 115.413 C 1198.849 114.086 1201.186 113.000 1202.500 113.000 C 1203.814 113.000 1206.151 114.086 1207.694 115.413 "/></g>
<g fill="#FFFFFFFF" stroke="#FFFFFFFF">
<path d="M 868.000 160.000 C 868.000 265.333 868.338 319.000 869.000 319.000 C 869.662 319.000 870.000 265.333 870.000 160.000 C 870.000 54.667 869.662 1.000 869.000 1.000 C 868.338 1.000 868.000 54.667 868.000 160.000 "/></g>
<g fill="#000000FF" stroke="#000000FF">
<path d="M 1884.707 112.016 C 1879.763 115.905 1878.583 126.663 1882.453 132.569 C 1886.044 138.048 1893.648 138.909 1898.526 134.388 C 1901.743 131.407 1902.000 131.415 1902.000 134.500 C 1902.000 136.333 1902.533 137.000 1904.000 137.000 C 1905.901 137.000 1906.000 136.333 1906.000 123.500 L 1906.000 110.000 1903.500 110.000 C 1901.512 110.000 1901.000 110.503 1901.000 112.455 L 1901.000 114.909 1898.545 112.455 C 1895.357 109.266 1888.480 109.048 1884.707 112.016 M 1898.931 115.502 C 1900.037 116.609 1900.500 119.004 1900.500 123.624 C 1900.500 129.304 1900.186 130.431 1898.139 132.088 C 1891.007 137.864 1882.320 129.668 1885.059 119.748 C 1886.389 114.932 1889.482 112.721 1893.931 113.405 C 1895.818 113.695 1898.068 114.639 1898.931 115.502 "/></g>
<g fill="#000000FF" stroke="#000000FF">
<path d="M 1356.000 118.500 L 1356.000 137.000 1358.500 137.000 L 1361.000 137.000 1361.000 122.300 C 1361.000 113.740 1361.369 107.997 1361.884 108.550 C 1362.800 109.535 1369.010 124.258 1371.702 131.828 C 1373.106 135.776 1375.324 138.009 1376.588 136.745 C 1376.864 136.469 1378.167 133.376 1379.483 129.872 C 1384.668 116.063 1388.291 108.062 1389.126 108.578 C 1389.606 108.875 1390.000 115.391 1390.000 123.059 C 1390.000 136.333 1390.096 137.000 1392.000 137.000 C 1393.928 137.000 1394.000 136.333 1394.000 118.500 L 1394.000 100.000 1390.677 100.000 L 1387.354 100.000 1381.761 114.222 C 1378.685 122.044 1375.777 128.574 1375.300 128.733 C 1374.822 128.893 1372.700 124.630 1370.585 119.261 C 1362.678 99.199 1363.144 100.000 1359.377 100.000 L 1356.000 100.000 1356.000 118.500 "/></g>
<g fill="#000000FF" stroke="#000000FF">
<path d="M 1403.686 112.415 C 1402.253 113.743 1400.800 116.105 1400.457 117.665 C 1400.114 119.224 1399.686 120.995 1399.506 121.600 C 1399.326 122.204 1399.618 124.760 1400.155 127.279 C 1402.314 137.400 1411.461 140.587 1418.750 133.759 L 1421.000 131.651 1421.000 134.326 C 1421.000 136.333 1421.499 137.000 1423.000 137.000 C 1424.901 137.000 1425.000 136.333 1425.000 123.500 C 1425.000 110.667 1424.901 110.000 1423.000 110.000 C 1421.667 110.000 1421.000 110.667 1421.000 112.000 C 1421.000 113.100 1420.733 114.000 1420.408 114.000 C 1420.082 114.000 1418.671 113.100 1417.273 112.000 C 1413.589 109.102 1407.045 109.302 1403.686 112.415 M 1418.077 115.923 C 1420.470 118.316 1421.000 119.690 1421.000 123.500 C 1421.000 127.310 1420.470 128.684 1418.077 131.077 C 1414.555 134.599 1411.066 134.821 1407.494 131.748 C 1402.644 127.576 1403.157 116.686 1408.321 114.189 C 1412.095 112.364 1415.042 112.888 1418.077 115.923 "/></g>
<g fill="#000000FF" stroke="#000000FF">
<path d="M 1946.766 112.918 C 1943.614 115.734 1943.500 116.105 1943.500 123.528 C 1943.500 131.021 1943.586 131.291 1946.832 134.001 C 1950.831 137.340 1954.574 138.233 1959.207 136.953 C 1968.880 134.282 1971.790 119.698 1964.037 112.750 C 1961.481 110.459 1960.055 110.000 1955.500 110.000 C 1950.871 110.000 1949.530 110.448 1946.766 112.918 M 1959.455 113.621 C 1961.768 114.509 1964.000 119.312 1964.000 123.403 C 1964.000 132.910 1956.076 137.229 1949.923 131.077 C 1947.637 128.791 1947.000 127.255 1947.000 124.027 C 1947.000 119.667 1949.099 114.526 1951.229 113.669 C 1953.073 112.927 1957.578 112.901 1959.455 113.621 "/></g>
<g fill="#000000FF" stroke="#000000FF">
<path d="M 1661.381 111.910 C 1656.183 115.079 1654.422 123.871 1657.630 130.633 C 1661.336 138.443 1672.096 139.684 1678.465 133.036 C 1680.914 130.480 1681.328 129.226 1681.397 124.160 C 1681.489 117.361 1679.786 113.458 1675.835 111.415 C 1671.967 109.414 1665.087 109.650 1661.381 111.910 M 1673.748 114.536 C 1676.956 116.783 1678.535 122.847 1677.069 127.290 C 1674.107 136.266 1663.620 136.137 1660.909 127.092 C 1658.069 117.613 1666.446 109.421 1673.748 114.536 "/></g>
<g fill="#000000FF" stroke="#000000FF">
<path d="M 1016.839 150.451 C 1015.331 152.936 1012.409 155.848 1010.097 157.169 C 1005.026 160.065 1004.916 162.242 1009.716 164.732 C 1011.760 165.793 1014.798 168.738 1016.466 171.276 C 1018.135 173.814 1020.011 175.916 1020.635 175.946 C 1021.259 175.975 1022.527 174.845 1023.451 173.434 C 1026.424 168.897 1028.418 166.846 1032.250 164.384 C 1034.313 163.059 1036.000 161.552 1036.000 161.035 C 1036.000 160.519 1033.960 158.693 1031.468 156.978 C 1028.975 155.263 1025.765 152.091 1024.335 149.930 C 1022.904 147.768 1021.232 146.014 1020.617 146.032 C 1020.003 146.049 1018.303 148.038 1016.839 150.451 M 1023.881 155.053 C 1025.122 156.732 1027.168 158.575 1028.426 159.148 C 1030.675 160.173 1030.629 160.276 1025.723 165.182 L 1020.732 170.173 1015.867 165.153 C 1011.585 160.734 1011.233 160.061 1012.925 159.524 C 1013.983 159.188 1016.088 157.358 1017.604 155.457 C 1019.119 153.556 1020.644 152.000 1020.992 152.000 C 1021.339 152.000 1022.640 153.374 1023.881 155.053 "/></g>
<g fill="#000000FF" stroke="#000000FF">
<path d="M 1697.000 110.108 C 1695.625 110.647 1693.723 112.081 1692.772 113.294 L 1691.044 115.500 1691.022 112.750 C 1691.005 110.674 1690.510 110.000 1689.000 110.000 C 1687.099 110.000 1687.000 110.667 1687.000 123.500 C 1687.000 136.333 1687.099 137.000 1689.000 137.000 C 1690.838 137.000 1691.000 136.333 1691.002 128.750 C 1691.003 118.585 1693.003 113.671 1697.338 113.175 C 1702.785 112.551 1704.000 115.010 1704.000 126.655 L 1704.000 137.000 1706.500 137.000 L 1709.000 137.000 1709.000 127.000 C 1709.000 118.333 1709.267 116.733 1711.000 115.000 C 1712.100 113.900 1714.125 113.000 1715.500 113.000 C 1716.875 113.000 1718.900 113.900 1720.000 115.000 C 1721.733 116.733 1722.000 118.333 1722.000 127.000 C 1722.000 136.333 1722.133 137.000 1724.000 137.000 C 1725.872 137.000 1726.000 136.333 1726.000 126.565 C 1726.000 113.951 1725.234 111.562 1720.706 110.068 C 1716.592 108.710 1712.939 109.834 1710.563 113.187 L 1708.925 115.500 1707.212 113.367 C 1705.493 111.225 1701.839 108.945 1700.316 109.063 C 1699.867 109.098 1698.375 109.568 1697.000 110.108 "/></g>
<g fill="#000000FF" stroke="#000000FF">
<path d="M 1485.256 111.029 C 1479.165 113.478 1476.888 125.566 1481.287 132.102 C 1484.180 136.402 1489.735 138.443 1494.762 137.055 C 1498.622 135.989 1503.000 132.413 1503.000 130.326 C 1503.000 128.204 1500.301 128.790 1497.591 131.500 C 1492.722 136.369 1485.228 133.849 1483.466 126.750 L 1482.783 124.000 1493.392 124.000 C 1503.748 124.000 1504.000 123.946 1504.000 121.734 C 1504.000 118.425 1500.655 112.690 1497.893 111.265 C 1495.130 109.839 1488.524 109.715 1485.256 111.029 M 1495.961 113.979 C 1497.873 115.002 1500.263 120.403 1499.252 121.415 C 1498.930 121.737 1495.094 122.000 1490.726 122.000 C 1483.897 122.000 1482.871 121.779 1483.393 120.418 C 1483.727 119.548 1484.000 118.423 1484.000 117.918 C 1484.000 117.413 1484.900 116.100 1486.000 115.000 C 1488.145 112.855 1492.942 112.363 1495.961 113.979 "/></g>
<g fill="#000000FF" stroke="#000000FF">
<path d="M 1630.619 99.979 C 1626.820 101.190 1623.068 104.736 1621.371 108.718 C 1619.389 113.369 1619.665 123.666 1621.904 128.595 C 1625.841 137.265 1637.342 140.111 1645.806 134.510 C 1648.113 132.983 1650.006 131.457 1650.014 131.117 C 1650.021 130.778 1650.299 129.488 1650.630 128.250 C 1651.112 126.452 1650.821 126.000 1649.184 126.000 C 1648.045 126.000 1646.865 126.849 1646.528 127.911 C 1644.960 132.851 1635.057 135.049 1629.820 131.618 C 1623.025 127.165 1622.291 112.511 1628.551 106.250 C 1631.301 103.499 1632.527 103.000 1636.532 103.000 C 1640.644 103.000 1641.696 103.458 1644.565 106.500 C 1647.413 109.520 1651.000 111.165 1651.000 109.450 C 1651.000 107.725 1647.735 103.056 1645.506 101.596 C 1642.389 99.553 1634.606 98.708 1630.619 99.979 "/></g>
<g fill="#000000FF" stroke="#000000FF">
<path d="M 1743.000 109.689 C 1740.986 110.457 1738.000 113.112 1738.000 114.134 C 1738.000 114.587 1739.092 114.460 1740.426 113.852 C 1743.858 112.288 1747.886 113.571 1749.035 116.593 C 1749.566 117.988 1750.000 123.151 1750.000 128.065 C 1750.000 136.149 1750.179 137.000 1751.884 137.000 C 1753.575 137.000 1753.808 135.988 1754.166 127.069 C 1754.612 115.962 1756.069 113.000 1761.084 113.000 C 1766.114 113.000 1767.000 115.031 1767.000 126.571 L 1767.000 137.000 1769.500 137.000 C 1771.992 137.000 1772.000 136.969 1772.000 127.468 C 1772.000 116.368 1770.444 111.499 1766.404 109.964 C 1763.023 108.678 1757.604 110.300 1755.567 113.207 C 1754.134 115.253 1754.120 115.251 1751.814 112.668 C 1749.418 109.983 1745.606 108.694 1743.000 109.689 "/></g>
<g fill="#000000FF" stroke="#000000FF">
<path d="M 1221.000 123.500 L 1221.000 137.000 1223.500 137.000 C 1225.959 137.000 1226.000 136.869 1226.000 128.968 C 1226.000 118.317 1227.645 114.345 1232.429 113.447 C 1234.971 112.970 1236.732 113.250 1238.504 114.411 C 1240.902 115.982 1241.000 116.456 1241.000 126.523 L 1241.000 137.000 1243.500 137.000 L 1246.000 137.000 1246.000 126.950 C 1246.000 112.731 1244.363 110.000 1235.841 110.000 C 1232.759 110.000 1231.178 110.668 1228.923 112.923 L 1226.000 115.846 1226.000 112.923 C 1226.000 110.472 1225.596 110.000 1223.500 110.000 L 1221.000 110.000 1221.000 123.500 "/></g>
<g fill="#000000FF" stroke="#000000FF">
<path d="M 1451.000 118.500 C 1451.000 136.333 1451.072 137.000 1453.000 137.000 C 1454.725 137.000 1455.000 136.333 1455.000 132.155 C 1455.000 124.058 1459.834 121.553 1463.604 127.696 C 1468.682 135.972 1469.581 136.987 1471.833 136.993 C 1473.117 136.997 1474.017 136.651 1473.833 136.224 C 1472.873 133.990 1465.629 122.998 1465.108 122.985 C 1464.774 122.976 1463.825 122.514 1463.000 121.958 C 1461.770 121.128 1462.578 119.967 1467.500 115.497 C 1472.677 110.796 1473.178 110.045 1471.154 110.024 C 1469.713 110.009 1466.390 112.123 1462.543 115.500 C 1459.097 118.525 1455.991 121.000 1455.639 121.000 C 1455.288 121.000 1455.000 116.275 1455.000 110.500 C 1455.000 100.667 1454.873 100.000 1453.000 100.000 C 1451.072 100.000 1451.000 100.667 1451.000 118.500 "/></g>
<g fill="#000000FF" stroke="#000000FF">
<path d="M 1808.000 123.500 L 1808.000 137.000 1810.500 137.000 C 1812.992 137.000 1813.000 136.970 1813.000 127.455 C 1813.000 118.653 1813.191 117.718 1815.455 115.455 C 1818.485 112.424 1823.220 112.220 1826.000 115.000 C 1827.733 116.733 1828.000 118.333 1828.000 127.000 C 1828.000 136.333 1828.133 137.000 1830.000 137.000 C 1831.882 137.000 1831.999 136.338 1831.985 125.750 C 1831.968 113.823 1831.751 112.958 1828.316 111.150 C 1824.328 109.051 1818.544 109.729 1815.636 112.636 L 1813.000 115.273 1813.000 112.636 C 1813.000 110.491 1812.534 110.000 1810.500 110.000 L 1808.000 110.000 1808.000 123.500 "/></g>
<g fill="#000000FF" stroke="#000000FF">
<path d="M 1778.000 119.532 C 1778.000 131.409 1779.421 135.324 1784.317 136.940 C 1787.152 137.875 1788.522 137.809 1791.428 136.594 C 1793.408 135.767 1795.295 134.395 1795.621 133.545 C 1796.543 131.142 1798.000 131.726 1798.000 134.500 C 1798.000 136.333 1798.533 137.000 1800.000 137.000 C 1801.901 137.000 1802.000 136.333 1802.000 123.500 C 1802.000 110.895 1801.874 110.000 1800.097 110.000 C 1798.382 110.000 1798.159 110.950 1797.847 119.588 C 1797.519 128.656 1797.348 129.306 1794.694 131.588 C 1791.313 134.494 1788.039 134.662 1784.861 132.090 C 1782.712 130.351 1782.469 129.273 1782.156 120.090 C 1781.845 110.952 1781.633 110.000 1779.906 110.000 C 1778.165 110.000 1778.000 110.823 1778.000 119.532 "/></g>
<g fill="#000000FF" stroke="#000000FF">
<path d="M 1541.000 123.500 C 1541.000 136.105 1541.126 137.000 1542.903 137.000 C 1544.618 137.000 1544.841 136.050 1545.153 127.412 C 1545.481 118.344 1545.652 117.694 1548.306 115.412 C 1551.687 112.506 1554.961 112.338 1558.139 114.910 C 1560.288 116.649 1560.531 117.727 1560.844 126.910 C 1561.160 136.205 1561.344 137.000 1563.180 137.000 C 1565.074 137.000 1565.156 136.431 1564.836 125.410 C 1564.524 114.639 1564.333 113.684 1562.139 111.910 C 1558.566 109.019 1551.590 109.319 1548.409 112.500 C 1547.034 113.875 1545.705 115.000 1545.455 115.000 C 1545.205 115.000 1545.000 113.875 1545.000 112.500 C 1545.000 110.667 1544.467 110.000 1543.000 110.000 C 1541.099 110.000 1541.000 110.667 1541.000 123.500 "/></g>
<g fill="#000000FF" stroke="#000000FF">
<path d="M 1974.000 123.500 C 1974.000 136.333 1974.099 137.000 1976.000 137.000 C 1977.844 137.000 1978.000 136.333 1978.000 128.450 C 1978.000 118.645 1979.597 114.390 1983.659 113.371 C 1987.274 112.463 1991.213 114.049 1992.714 117.017 C 1993.433 118.439 1993.977 123.240 1993.985 128.250 C 1993.999 136.328 1994.154 137.000 1996.000 137.000 C 1997.857 137.000 1998.000 136.333 1998.000 127.649 C 1998.000 113.134 1996.228 110.000 1988.020 110.000 C 1984.968 110.000 1983.265 110.644 1981.409 112.500 C 1980.034 113.875 1978.705 115.000 1978.455 115.000 C 1978.205 115.000 1978.000 113.875 1978.000 112.500 C 1978.000 110.667 1977.467 110.000 1976.000 110.000 C 1974.099 110.000 1974.000 110.667 1974.000 123.500 "/></g>
<g fill="#000000FF" stroke="#000000FF">
<path d="M 1856.881 111.503 C 1853.781 113.188 1851.000 118.568 1851.000 122.881 C 1851.000 127.197 1853.856 133.852 1856.260 135.139 C 1862.941 138.715 1869.277 137.830 1873.590 132.721 C 1876.193 129.636 1876.221 129.487 1874.256 129.194 C 1873.076 129.018 1871.117 129.974 1869.647 131.444 C 1866.297 134.794 1861.744 134.835 1858.455 131.545 C 1856.434 129.525 1856.000 128.103 1856.000 123.500 C 1856.000 118.897 1856.434 117.475 1858.455 115.455 C 1861.721 112.188 1866.298 112.207 1869.591 115.500 C 1870.966 116.875 1872.961 118.000 1874.024 118.000 C 1875.738 118.000 1875.824 117.708 1874.784 115.425 C 1874.139 114.009 1872.371 112.209 1870.855 111.425 C 1867.357 109.616 1860.281 109.656 1856.881 111.503 "/></g>
<g fill="#000000FF" stroke="#000000FF">
<path d="M 1915.000 106.500 C 1915.000 109.333 1914.619 110.000 1913.000 110.000 C 1911.889 110.000 1911.000 110.667 1911.000 111.500 C 1911.000 112.333 1911.889 113.000 1913.000 113.000 C 1914.842 113.000 1915.000 113.667 1915.000 121.435 C 1915.000 129.900 1916.100 134.807 1918.313 136.214 C 1920.525 137.621 1926.000 137.112 1926.000 135.500 C 1926.000 134.675 1925.190 134.000 1924.200 134.000 C 1920.756 134.000 1920.000 131.893 1920.000 122.300 C 1920.000 113.047 1920.013 113.000 1922.500 113.000 C 1924.056 113.000 1925.000 112.433 1925.000 111.500 C 1925.000 110.567 1924.056 110.000 1922.500 110.000 C 1920.310 110.000 1920.000 109.567 1920.000 106.500 C 1920.000 103.433 1919.690 103.000 1917.500 103.000 C 1915.310 103.000 1915.000 103.433 1915.000 106.500 "/></g>
<g fill="#000000FF" stroke="#000000FF">
<path d="M 1512.813 106.250 C 1512.573 108.741 1511.975 109.575 1510.250 109.820 C 1507.131 110.262 1507.347 113.000 1510.500 113.000 L 1513.000 113.000 1513.000 123.345 C 1513.000 132.097 1513.282 133.945 1514.829 135.345 C 1517.179 137.472 1523.000 137.583 1523.000 135.500 C 1523.000 134.675 1522.190 134.000 1521.200 134.000 C 1517.756 134.000 1517.000 131.893 1517.000 122.300 L 1517.000 113.000 1520.000 113.000 C 1522.000 113.000 1523.000 112.500 1523.000 111.500 C 1523.000 110.500 1522.000 110.000 1520.000 110.000 C 1517.238 110.000 1517.000 109.722 1517.000 106.500 C 1517.000 103.705 1516.610 103.000 1515.063 103.000 C 1513.609 103.000 1513.049 103.810 1512.813 106.250 "/></g>
<g fill="#000000FF" stroke="#000000FF">
<path d="M 1172.000 123.500 L 1172.000 137.000 1174.403 137.000 C 1176.750 137.000 1176.815 136.774 1177.153 127.412 C 1177.481 118.344 1177.652 117.694 1180.306 115.412 C 1181.849 114.086 1183.986 113.000 1185.056 113.000 C 1186.125 113.000 1187.000 112.325 1187.000 111.500 C 1187.000 109.103 1182.198 109.711 1179.455 112.455 L 1177.000 114.909 1177.000 112.455 C 1177.000 110.503 1176.488 110.000 1174.500 110.000 L 1172.000 110.000 1172.000 123.500 "/></g>
<g fill="#000000FF" stroke="#000000FF">
<path d="M 1432.000 123.500 C 1432.000 136.333 1432.099 137.000 1434.000 137.000 C 1435.853 137.000 1436.000 136.333 1436.000 127.923 C 1436.000 119.224 1436.122 118.724 1438.923 115.923 C 1440.641 114.205 1442.908 113.000 1444.423 113.000 C 1446.047 113.000 1447.000 112.445 1447.000 111.500 C 1447.000 109.254 1441.395 109.605 1439.000 112.000 C 1437.900 113.100 1436.775 114.000 1436.500 114.000 C 1436.225 114.000 1436.000 113.100 1436.000 112.000 C 1436.000 110.667 1435.333 110.000 1434.000 110.000 C 1432.099 110.000 1432.000 110.667 1432.000 123.500 "/></g>
<g fill="#000000FF" stroke="#000000FF">
<path d="M 1840.000 123.500 L 1840.000 137.000 1842.500 137.000 L 1845.000 137.000 1845.000 123.500 L 1845.000 110.000 1842.500 110.000 L 1840.000 110.000 1840.000 123.500 "/></g>
<g fill="#000000FF" stroke="#000000FF">
<path d="M 1529.000 123.500 L 1529.000 137.000 1531.500 137.000 L 1534.000 137.000 1534.000 123.500 L 1534.000 110.000 1531.500 110.000 L 1529.000 110.000 1529.000 123.500 "/></g>
<g fill="#000000FF" stroke="#000000FF">
<path d="M 1041.160 170.240 C 1040.522 170.878 1040.000 172.631 1040.000 174.137 C 1040.000 176.492 1039.548 176.917 1036.758 177.187 C 1034.623 177.393 1033.403 178.097 1033.185 179.250 C 1032.920 180.647 1033.561 181.000 1036.366 181.000 C 1039.702 181.000 1039.895 181.188 1040.190 184.742 C 1040.407 187.357 1041.027 188.583 1042.250 188.815 C 1043.685 189.087 1044.000 188.412 1044.000 185.073 L 1044.000 181.000 1048.073 181.000 C 1051.412 181.000 1052.087 180.685 1051.815 179.250 C 1051.583 178.027 1050.357 177.407 1047.742 177.190 C 1044.219 176.897 1044.000 176.682 1044.000 173.499 C 1044.000 169.733 1042.914 168.486 1041.160 170.240 "/></g>
<g fill="#000000FF" stroke="#000000FF">
<path d="M 1028.000 121.427 C 1028.000 124.819 1027.829 125.000 1024.622 125.000 C 1021.337 125.000 1018.351 127.017 1019.675 128.342 C 1020.037 128.704 1022.058 129.000 1024.167 129.000 C 1027.972 129.000 1028.000 129.029 1028.000 133.000 C 1028.000 135.752 1028.434 137.000 1029.393 137.000 C 1030.996 137.000 1032.000 134.874 1032.000 131.482 C 1032.000 129.556 1032.592 129.070 1035.250 128.813 C 1039.627 128.391 1039.673 125.614 1035.309 125.191 C 1032.533 124.922 1032.078 124.468 1031.809 121.699 C 1031.607 119.618 1030.894 118.402 1029.750 118.185 C 1028.348 117.919 1028.000 118.564 1028.000 121.427 "/></g>
<g fill="#000000FF" stroke="#000000FF">
<path d="M 1733.000 123.500 C 1733.000 136.119 1733.125 137.000 1734.909 137.000 C 1736.648 137.000 1736.849 136.042 1737.163 126.250 C 1737.609 112.337 1737.281 110.000 1734.887 110.000 C 1733.131 110.000 1733.000 110.937 1733.000 123.500 "/></g>
<g fill="#000000FF" stroke="#000000FF">
<path d="M 1932.000 123.500 C 1932.000 136.333 1932.099 137.000 1934.000 137.000 C 1935.901 137.000 1936.000 136.333 1936.000 123.500 C 1936.000 110.667 1935.901 110.000 1934.000 110.000 C 1932.099 110.000 1932.000 110.667 1932.000 123.500 "/></g>
<g fill="#000000FF" stroke="#000000FF">
<path d="M 1931.441 101.096 C 1931.068 101.699 1931.469 102.898 1932.331 103.760 C 1933.623 105.052 1934.173 105.102 1935.450 104.042 C 1936.302 103.334 1937.000 102.135 1937.000 101.378 C 1937.000 99.733 1932.426 99.501 1931.441 101.096 "/></g>
<g fill="#000000FF" stroke="#000000FF">
<path d="M 1839.441 101.096 C 1839.068 101.699 1839.469 102.898 1840.331 103.760 C 1841.623 105.052 1842.173 105.102 1843.450 104.042 C 1844.302 103.334 1845.000 102.135 1845.000 101.378 C 1845.000 99.733 1840.426 99.501 1839.441 101.096 "/></g>
<g fill="#000000FF" stroke="#000000FF">
<path d="M 1529.000 101.917 C 1529.000 102.971 1529.563 104.030 1530.250 104.269 C 1532.304 104.986 1534.000 103.911 1534.000 101.893 C 1534.000 100.540 1533.286 100.000 1531.500 100.000 C 1529.703 100.000 1529.000 100.539 1529.000 101.917 "/></g>
</svg>
